<svg width="30" height="30" viewBox="0 0 30 30" fill="none" xmlns="http://www.w3.org/2000/svg">
<path d="M25.4851 2.70112H27.2989V4.51492C27.299 5.75646 27.0545 6.98587 26.5795 8.13293C26.1044 9.27999 25.4081 10.3223 24.5302 11.2002L14.324 21.405L8.59362 15.6746L18.7998 5.46977C19.6777 4.59191 20.72 3.89558 21.8671 3.42054C23.0141 2.94549 24.2435 2.70103 25.4851 2.70112ZM23.3863 16.1635L26.4386 13.1099C27.5675 11.9813 28.4631 10.6414 29.0742 9.16664C29.6852 7.6919 29.9998 6.11125 30 4.51492V4.55812e-10H25.4851C23.8888 -1.38226e-05 22.3082 0.314374 20.8335 0.925213C19.3588 1.53605 18.0188 2.43138 16.8901 3.56008L13.8365 6.61234L6.19637 5.6575L0.476748 11.3771L18.6215 29.5233L24.3412 23.8036L23.3863 16.1635ZM20.9661 18.5824L21.4969 22.8272L18.6215 25.7025L16.2337 23.3147L20.9661 18.5824ZM11.4176 9.03255L6.68392 13.7649L4.29883 11.3771L7.17418 8.50178L11.4176 9.03255ZM6.68392 21.4037L1.90969 26.1793L0 24.2696L4.77423 19.4953L6.68392 21.4037ZM10.5047 25.2258L5.72908 30L3.81939 28.0903L8.59362 23.3147L10.5047 25.2258Z" fill="#0A0C10"/>
</svg>
