<svg width="22" height="22" viewBox="0 0 22 22" fill="none" xmlns="http://www.w3.org/2000/svg">
<path d="M21.7861 8.84565H20.9V8.8H11V13.2H17.2167C16.3097 15.7614 13.8727 17.6 11 17.6C7.35515 17.6 4.4 14.6448 4.4 11C4.4 7.35515 7.35515 4.4 11 4.4C12.6825 4.4 14.2131 5.0347 15.3786 6.07145L18.4899 2.9601C16.5253 1.12915 13.8974 0 11 0C4.92525 0 0 4.92525 0 11C0 17.0748 4.92525 22 11 22C17.0748 22 22 17.0748 22 11C22 10.2625 21.9241 9.5425 21.7861 8.84565Z" fill="#FFC107"/>
<path d="M1.27197 5.88005L4.88602 8.5305C5.86392 6.1094 8.23222 4.4 11.0037 4.4C12.6861 4.4 14.2168 5.0347 15.3822 6.07145L18.4936 2.9601C16.529 1.12915 13.9011 0 11.0037 0C6.77857 0 3.11447 2.38535 1.27197 5.88005Z" fill="#FF3D00"/>
<path d="M10.9959 21.9999C13.8372 21.9999 16.4189 20.9125 18.3708 19.1443L14.9663 16.2634C13.825 17.1318 12.43 17.6014 10.9959 17.5999C8.13477 17.5999 5.70542 15.7755 4.79022 13.2296L1.20312 15.9933C3.02362 19.5557 6.72072 21.9999 10.9959 21.9999Z" fill="#4CAF50"/>
<path d="M21.786 8.84564H20.9V8.79999H11V13.2H17.2167C16.7828 14.419 16.0013 15.4842 14.9688 16.264L14.9704 16.2629L18.375 19.1438C18.1341 19.3627 22 16.5 22 11C22 10.2624 21.9241 9.54249 21.786 8.84564Z" fill="#1976D2"/>
</svg>
