<svg width="32" height="41" viewBox="0 0 32 41" fill="none" xmlns="http://www.w3.org/2000/svg">
<path d="M16 4.56457V0.999021C16 0.102653 14.92 -0.335571 14.3 0.301846L8.7 5.85933C8.3 6.25771 8.3 6.87521 8.7 7.2736L14.28 12.8311C14.92 13.4486 16 13.0103 16 12.114V8.54843C22.62 8.54843 28 13.9067 28 20.5C28 22.0736 27.7 23.6074 27.12 24.9818C26.82 25.6989 27.04 26.5156 27.58 27.0534C28.6 28.0693 30.32 27.7108 30.86 26.3762C31.6 24.5635 32 22.5716 32 20.5C32 11.6957 24.84 4.56457 16 4.56457ZM16 32.4516C9.38 32.4516 4 27.0933 4 20.5C4 18.9264 4.3 17.3926 4.88 16.0182C5.18 15.3011 4.96 14.4844 4.42 13.9466C3.4 12.9307 1.68 13.2892 1.14 14.6238C0.4 16.4365 0 18.4284 0 20.5C0 29.3043 7.16 36.4354 16 36.4354V40.001C16 40.8974 17.08 41.3356 17.7 40.6982L23.28 35.1407C23.68 34.7423 23.68 34.1248 23.28 33.7264L17.7 28.1689C17.559 28.0313 17.3803 27.9383 17.1863 27.9016C16.9923 27.865 16.7918 27.8864 16.61 27.9631C16.4282 28.0398 16.2733 28.1683 16.1647 28.3326C16.0561 28.4968 15.9988 28.6894 16 28.886V32.4516Z" fill="#777777"/>
</svg>
