<svg width="27" height="30" viewBox="0 0 27 30" fill="none" xmlns="http://www.w3.org/2000/svg">
<path d="M27 21.75C27 22.32 26.685 22.815 26.205 23.07L14.355 29.73C14.115 29.91 13.815 30 13.5 30C13.185 30 12.885 29.91 12.645 29.73L0.795008 23.07C0.55442 22.9438 0.353076 22.7539 0.2129 22.5212C0.0727238 22.2884 -0.000912413 22.0217 8.53369e-06 21.75V8.25C8.53369e-06 7.68 0.315008 7.185 0.795008 6.93L12.645 0.27C12.885 0.0900001 13.185 0 13.5 0C13.815 0 14.115 0.0900001 14.355 0.27L26.205 6.93C26.685 7.185 27 7.68 27 8.25V21.75ZM13.5 3.225L4.56001 8.25L13.5 13.275L22.44 8.25L13.5 3.225ZM3.00001 20.865L12 25.935V15.87L3.00001 10.815V20.865ZM24 20.865V10.815L15 15.87V25.935L24 20.865Z" fill="#0A0C10"/>
</svg>
