<svg width="32" height="32" viewBox="0 0 32 32" fill="none" xmlns="http://www.w3.org/2000/svg">
<path d="M30.0515 14.2468C29.6226 11.1617 28.1913 8.30322 25.9781 6.11158C23.765 3.91993 20.8926 2.51669 17.8035 2.11799C15.0449 1.76016 12.2419 2.2204 9.74257 3.44155C7.24321 4.66271 5.15754 6.59102 3.74445 8.9871M2 17.7532C2.4056 20.6725 3.70946 23.3933 5.7308 25.5383C7.75214 27.6833 10.3908 29.1462 13.2809 29.7242C16.171 30.3022 19.1694 29.9667 21.8602 28.7641C24.5511 27.5616 26.8011 25.5516 28.2983 23.0129" stroke="#0A0C10" stroke-width="3" stroke-linecap="round" stroke-linejoin="round"/>
<path d="M26.5451 23.0126C26.5451 23.4776 26.7298 23.9235 27.0586 24.2523C27.3874 24.5811 27.8333 24.7658 28.2983 24.7658C28.7633 24.7658 29.2092 24.5811 29.538 24.2523C29.8668 23.9235 30.0515 23.4776 30.0515 23.0126C30.0515 22.5476 29.8668 22.1017 29.538 21.7729C29.2092 21.4441 28.7633 21.2594 28.2983 21.2594C27.8333 21.2594 27.3874 21.4441 27.0586 21.7729C26.7298 22.1017 26.5451 22.5476 26.5451 23.0126ZM2 8.98686C2 9.45184 2.18471 9.89778 2.51351 10.2266C2.8423 10.5554 3.28824 10.7401 3.75322 10.7401C4.2182 10.7401 4.66414 10.5554 4.99293 10.2266C5.32172 9.89778 5.50644 9.45184 5.50644 8.98686C5.50644 8.52188 5.32172 8.07594 4.99293 7.74715C4.66414 7.41836 4.2182 7.23364 3.75322 7.23364C3.28824 7.23364 2.8423 7.41836 2.51351 7.74715C2.18471 8.07594 2 8.52188 2 8.98686ZM10.7661 15.9997C10.7661 17.3947 11.3202 18.7325 12.3066 19.7189C13.293 20.7052 14.6308 21.2594 16.0257 21.2594C17.4207 21.2594 18.7585 20.7052 19.7449 19.7189C20.7313 18.7325 21.2854 17.3947 21.2854 15.9997C21.2854 14.6048 20.7313 13.267 19.7449 12.2806C18.7585 11.2942 17.4207 10.7401 16.0257 10.7401C14.6308 10.7401 13.293 11.2942 12.3066 12.2806C11.3202 13.267 10.7661 14.6048 10.7661 15.9997Z" stroke="#0A0C10" stroke-width="3" stroke-linecap="round" stroke-linejoin="round"/>
</svg>
