<svg width="152" height="42" viewBox="0 0 152 42" fill="none" xmlns="http://www.w3.org/2000/svg">
<path d="M34.2861 29.0753C34.2861 30.0583 34.2557 33.4299 31.9776 36.5784C29 40.6915 23.4824 42.6405 17.7653 41.8123C18.0403 41.7979 24.0007 41.395 26.5989 36.3658C28.1657 33.3315 27.7624 30.0557 26.8183 27.8574C25.6442 25.1276 23.4256 23.5737 21.2717 22.0657C18.9209 20.42 18.1619 20.5748 15.8983 18.7479C14.3871 17.5287 12.9736 16.3882 11.9952 14.4288C11.666 13.7699 10.2552 10.7461 11.2482 7.27218C12.3469 3.42418 16.1826 -0.0196022 20.8579 8.39924e-05C26.8765 0.0263323 30.8299 5.77209 30.8299 9.89832C30.8299 10.4377 30.7863 10.9653 30.703 11.4811C29.7668 10.5834 28.4684 10.2304 27.3142 10.6818C25.6535 11.3302 24.9184 13.3959 25.672 15.295C25.992 16.1047 26.5314 16.7544 27.174 17.1835C27.2586 17.24 27.3459 17.2925 27.4332 17.341C27.4768 17.3647 27.5178 17.3883 27.5614 17.408C31.5994 19.8294 34.2861 24.1498 34.2861 29.0767V29.0753Z" fill="white"/>
<path d="M11.0773 18.8595C12.0954 20.5525 12.065 21.6838 11.8442 22.407C11.121 24.7719 7.75467 24.7601 5.03889 27.8522C3.87668 29.1751 3.27375 30.5676 2.94321 31.5545C2.8057 30.9245 2.53994 29.3076 3.27904 27.4913C3.83304 26.129 4.7004 25.272 5.18962 24.8546C4.67396 24.9006 3.65587 24.9189 2.52142 24.4386C1.0485 23.8152 0.275017 22.7285 0 22.2967C0.214196 22.1195 0.528878 21.8413 0.86736 21.4647C2.16179 20.0184 2.20674 18.8923 2.95643 17.9434C3.45886 17.3082 4.40026 16.5969 6.33992 16.3475C6.24473 15.9591 6.12044 15.1952 6.39413 14.3225C6.92169 12.6452 8.48453 11.9733 8.7331 11.8709C8.50965 12.6938 8.29148 13.9432 8.57708 15.3724C8.92349 17.1061 9.71813 17.6495 9.43915 18.6731C9.11521 19.8583 7.54312 20.9948 6.0345 20.6588C4.99393 20.4265 4.41878 19.5918 4.26143 19.3451C4.2059 19.7283 4.00493 20.752 3.13625 21.6156C2.63117 22.1169 2.09303 22.3755 1.7453 22.5067C2.21864 22.8597 3.57125 23.7706 5.49636 23.7758C6.05697 23.7771 7.92656 23.7824 9.44973 22.3413C10.8658 21.0027 11.0443 19.3018 11.0773 18.8582V18.8595Z" fill="white"/>
<path d="M14.4629 25.5935C9.0128 25.5935 4.59402 29.2656 4.59402 33.7961C4.59402 35.8789 5.52749 37.7806 7.06652 39.2269C7.29791 39.4447 7.13792 39.8332 6.81795 39.8332C6.42658 39.7216 5.6769 39.5694 4.80425 39.8004C4.36792 39.9159 3.62221 40.1141 3.14754 40.8123C2.83682 41.269 2.77864 41.7428 2.76807 42C3.02986 41.8701 3.43445 41.685 3.94614 41.5144C6.81663 40.559 9.13179 41.3805 11.1191 41.7113C11.8886 41.8386 17.4696 42.693 21.1439 39.8332C21.4123 39.6245 24.3317 37.2294 24.3317 33.7948C24.3317 29.2643 19.9143 25.5922 14.4616 25.5922L14.4629 25.5935ZM9.77306 34.6387C9.31822 34.6387 8.95065 34.2738 8.95065 33.8223C8.95065 33.3709 9.31822 33.006 9.77306 33.006C10.2279 33.006 10.5955 33.3709 10.5955 33.8223C10.5955 34.2738 10.2279 34.6387 9.77306 34.6387ZM13.8613 34.9169C13.2518 34.9169 12.7586 34.426 12.7586 33.8223C12.7586 33.2186 13.2531 32.7278 13.8613 32.7278C14.4695 32.7278 14.964 33.2186 14.964 33.8223C14.964 34.426 14.4695 34.9169 13.8613 34.9169ZM17.9482 35.1781C17.1932 35.1781 16.5824 34.5704 16.5824 33.8223C16.5824 33.0743 17.1945 32.4666 17.9482 32.4666C18.7018 32.4666 19.314 33.0743 19.314 33.8223C19.314 34.5704 18.7018 35.1781 17.9482 35.1781Z" fill="white"/>
<path d="M48.4749 19.6184C48.3475 19.4004 48.163 19.1889 47.9257 18.9883C47.6885 18.7877 47.4095 18.6067 47.0932 18.4476C46.7769 18.2884 46.4277 18.162 46.0433 18.066C45.6589 17.9701 45.2613 17.9221 44.8484 17.9221C44.3146 17.9221 43.849 17.9745 43.4514 18.0813C43.0538 18.1881 42.7221 18.3298 42.4585 18.5108C42.195 18.6918 41.9995 18.9033 41.8721 19.1453C41.7447 19.3895 41.681 19.6511 41.681 19.9345C41.681 20.2659 41.7732 20.5407 41.9577 20.7609C42.1422 20.9789 42.3905 21.162 42.698 21.3059C43.0077 21.4498 43.3679 21.5632 43.7809 21.6439C44.1938 21.7246 44.6309 21.79 45.0922 21.8401C45.626 21.9033 46.1465 21.984 46.6539 22.0843C47.1613 22.1824 47.6468 22.3111 48.1037 22.4659C48.5627 22.6207 48.9845 22.8147 49.3667 23.048C49.7511 23.2813 50.0805 23.5647 50.3595 23.9005C50.6363 24.2363 50.8537 24.6331 51.0097 25.0909C51.1656 25.5488 51.2447 26.0786 51.2447 26.6782C51.2447 27.5241 51.0712 28.2545 50.7219 28.8629C50.3727 29.4733 49.9048 29.9748 49.314 30.3651C48.7231 30.7575 48.0422 31.0453 47.2668 31.2328C46.4914 31.4203 45.6787 31.5141 44.8242 31.5141C44.0423 31.5141 43.3086 31.4509 42.6211 31.3244C41.9358 31.1979 41.3098 30.9865 40.7452 30.6943C40.1807 30.4021 39.6777 30.0162 39.2406 29.5409C38.8035 29.0634 38.4433 28.4813 38.1577 27.7901L40.5673 26.5517C40.7387 26.9682 40.9715 27.3279 41.2658 27.631C41.5602 27.934 41.8962 28.1848 42.274 28.3832C42.6518 28.5816 43.0604 28.7255 43.5063 28.8171C43.95 28.9086 44.4047 28.9544 44.866 28.9544C45.3272 28.9544 45.7599 28.913 46.1839 28.8323C46.6078 28.7517 46.9812 28.6187 47.3085 28.4355C47.6358 28.2524 47.8972 28.0169 48.0927 27.7313C48.2882 27.4457 48.387 27.0946 48.387 26.6782C48.387 26.3184 48.297 26.011 48.1212 25.7581C47.9433 25.5052 47.6973 25.2893 47.381 25.1127C47.0647 24.9361 46.6913 24.7944 46.2608 24.6898C45.8302 24.5851 45.3602 24.5023 44.8484 24.4456C44.33 24.3823 43.8204 24.3038 43.3174 24.2123C42.8144 24.1207 42.3443 23.9986 41.8984 23.8482C41.4547 23.6955 41.0462 23.5102 40.6728 23.2878C40.2993 23.0654 39.9786 22.7951 39.7085 22.4789C39.4383 22.1606 39.2274 21.7878 39.0737 21.3561C38.9199 20.9266 38.8452 20.4251 38.8452 19.8539C38.8452 19.0711 39.021 18.4018 39.3724 17.848C39.7238 17.2942 40.1829 16.8385 40.7474 16.4831C41.3119 16.1277 41.9467 15.8639 42.6518 15.6939C43.3547 15.5238 44.0598 15.4366 44.7627 15.43C45.3602 15.43 45.9532 15.478 46.5441 15.5739C47.135 15.6699 47.6929 15.8312 48.2245 16.0602C48.7538 16.2891 49.2371 16.5987 49.6742 16.9868C50.1113 17.3749 50.4759 17.8611 50.7681 18.4476L48.4749 19.6228V19.6184Z" fill="white"/>
<path d="M60.4515 31.1241V25.3986C60.4515 25.0454 60.4054 24.7075 60.3131 24.3826C60.2209 24.0577 60.0825 23.7721 59.898 23.5257C59.7135 23.2794 59.4828 23.081 59.2039 22.9327C58.9271 22.7844 58.6064 22.7103 58.244 22.7103C57.8815 22.7103 57.5587 22.7844 57.2797 22.9327C56.9985 23.081 56.7591 23.2794 56.5592 23.5257C56.3593 23.7721 56.21 24.0577 56.1067 24.3826C56.0035 24.7075 55.953 25.0454 55.953 25.3986V31.1241H53.2864V20.4123H55.7487L55.9508 21.7139C56.0936 21.4457 56.2715 21.219 56.4889 21.0315C56.7064 20.844 56.9414 20.6935 57.1984 20.5758C57.4532 20.4602 57.719 20.3752 57.9936 20.3229C58.2681 20.2706 58.5317 20.2444 58.7887 20.2444C59.1094 20.2444 59.4257 20.2793 59.7442 20.3512C60.0605 20.421 60.3592 20.5344 60.6404 20.6892C60.9216 20.844 61.1764 21.0489 61.4092 21.304C61.6398 21.5569 61.8309 21.8687 61.9803 22.235C62.2219 21.8535 62.4789 21.5373 62.7535 21.2888C63.028 21.038 63.3158 20.8396 63.6167 20.6914C63.9198 20.5431 64.2361 20.4384 64.5656 20.3796C64.8951 20.3207 65.2356 20.2902 65.5848 20.2902C66.3536 20.2902 67.0214 20.4036 67.5903 20.6281C68.1592 20.8549 68.6336 21.1841 69.0136 21.618C69.3936 22.0519 69.6792 22.5839 69.8659 23.2118C70.0548 23.8397 70.1492 24.557 70.1492 25.3616V31.1306H67.4826V25.3616C67.4826 25.0083 67.4453 24.6748 67.3706 24.3608C67.2959 24.0468 67.1773 23.7699 67.0126 23.5301C66.8478 23.2903 66.6392 23.1006 66.3844 22.9632C66.1274 22.8259 65.8198 22.7561 65.4574 22.7561C65.095 22.7561 64.7699 22.828 64.4822 22.9719C64.1944 23.1158 63.9484 23.3099 63.7463 23.5541C63.5442 23.7983 63.3883 24.0774 63.2828 24.3957C63.1752 24.714 63.1225 25.0476 63.1225 25.4008V31.1263H60.4559L60.4515 31.1241Z" fill="white"/>
<path d="M81.3935 20.4339H83.9415V31.1239H81.4352L81.2968 29.5672C81.1475 29.879 80.9388 30.1493 80.6686 30.3826C80.3984 30.6159 80.1019 30.8122 79.779 30.9691C79.4561 31.1283 79.1223 31.246 78.7774 31.3245C78.4325 31.403 78.1118 31.4444 77.8131 31.451C77.0158 31.4575 76.2799 31.342 75.6012 31.1021C74.9225 30.8623 74.336 30.5025 73.8418 30.0229C73.3475 29.5432 72.961 28.948 72.6842 28.2394C72.4074 27.5308 72.269 26.7067 72.269 25.7669C72.269 24.8272 72.414 24.0402 72.7018 23.3381C72.9895 22.636 73.3871 22.0495 73.8901 21.5808C74.3953 21.112 74.9884 20.7588 75.6715 20.5212C76.3546 20.2857 77.0905 20.1701 77.879 20.1767C78.2414 20.1767 78.5951 20.2181 78.9399 20.2988C79.2848 20.3794 79.6055 20.495 79.9042 20.6432C80.203 20.7915 80.4731 20.9725 80.7147 21.1883C80.9564 21.4042 81.1519 21.6462 81.3012 21.9144L81.3979 20.4318L81.3935 20.4339ZM78.1096 22.5401C77.6681 22.5401 77.2552 22.6121 76.8664 22.7581C76.4798 22.902 76.1415 23.1135 75.8538 23.3926C75.5661 23.6717 75.3376 24.0096 75.1707 24.4086C75.0037 24.8076 74.9203 25.2611 74.9203 25.7691C74.9203 26.2771 75.0037 26.7328 75.1707 27.134C75.3376 27.5373 75.5661 27.8775 75.8538 28.1544C76.1415 28.4334 76.4798 28.6471 76.8664 28.7954C77.253 28.9436 77.6681 29.0178 78.1096 29.0178C78.6346 29.0178 79.0959 28.924 79.4913 28.7365C79.8867 28.549 80.2139 28.3048 80.4775 28.0017C80.7411 27.6987 80.9366 27.352 81.064 26.9639C81.1914 26.5758 81.2551 26.1812 81.2551 25.7778C81.2551 25.3745 81.1914 24.9799 81.064 24.5918C80.9366 24.2037 80.7411 23.857 80.4775 23.5539C80.2139 23.2509 79.8867 23.0045 79.4913 22.8192C79.0959 22.6317 78.6368 22.5379 78.1096 22.5379V22.5401Z" fill="white"/>
<path d="M88.6547 20.4332L88.8568 21.6716C89.0633 21.3402 89.2873 21.0764 89.5289 20.878C89.7705 20.6796 90.0188 20.5292 90.2758 20.4223C90.5306 20.3155 90.7963 20.2457 91.0709 20.2108C91.3455 20.176 91.6156 20.1585 91.8858 20.1585C92.156 20.1585 92.4372 20.1847 92.7073 20.237C92.9775 20.2893 93.2345 20.3613 93.4761 20.4485C93.7177 20.5379 93.9396 20.6425 94.1417 20.7668C94.3437 20.8911 94.5195 21.0263 94.6688 21.1745L93.4629 23.4726C93.1928 23.2458 92.9138 23.0757 92.6261 22.9602C92.3383 22.8446 91.9781 22.7858 91.5432 22.7858C91.1939 22.7858 90.8578 22.8337 90.5349 22.9297C90.2121 23.0256 89.9243 23.1804 89.6761 23.3962C89.4279 23.6121 89.228 23.8912 89.0786 24.2378C88.9293 24.5845 88.8546 25.0031 88.8546 25.4981V31.1298H86.188V20.4398H88.6503L88.6547 20.4332Z" fill="white"/>
<path d="M99.4257 17.4274V20.4558H102.4V22.732H99.4037V27.3586C99.4037 27.8666 99.5311 28.246 99.7881 28.4967C100.043 28.7475 100.381 28.8717 100.801 28.8717C101.007 28.8717 101.225 28.8412 101.451 28.7823C101.679 28.7235 101.892 28.6428 102.09 28.5447L102.837 30.7991C102.453 30.9539 102.09 31.0651 101.75 31.1327C101.409 31.2003 101.036 31.2395 100.629 31.2548C100.047 31.2766 99.5158 31.2112 99.0413 31.0586C98.5647 30.9059 98.1583 30.6661 97.82 30.3391C97.4818 30.0098 97.2204 29.5999 97.0359 29.105C96.8514 28.6101 96.7591 28.028 96.7591 27.3586V22.732H94.7537V20.4558H96.7591V17.7043L99.4257 17.4295V17.4274Z" fill="white"/>
<path d="M118.058 29.2183C117.269 29.9879 116.379 30.5548 115.391 30.9233C114.403 31.2895 113.355 31.4727 112.246 31.4727C111.301 31.4727 110.444 31.3702 109.676 31.1653C108.907 30.9603 108.226 30.6791 107.628 30.3193C107.031 29.9596 106.515 29.5322 106.078 29.0395C105.641 28.5446 105.28 28.0082 104.995 27.4261C104.711 26.8439 104.496 26.2313 104.356 25.5903C104.213 24.9471 104.143 24.2995 104.143 23.6433C104.136 22.987 104.204 22.3329 104.351 21.6788C104.496 21.0269 104.716 20.4033 105.008 19.8103C105.3 19.2173 105.669 18.6678 106.117 18.1598C106.565 17.6518 107.09 17.2114 107.69 16.8429C108.29 16.4723 108.971 16.1823 109.726 15.9708C110.484 15.7593 111.323 15.6525 112.248 15.6525C113.293 15.6525 114.291 15.8443 115.244 16.2303C116.197 16.614 117.071 17.1961 117.867 17.9723L115.936 19.8147C115.431 19.3285 114.857 18.9687 114.214 18.7354C113.57 18.5021 112.913 18.3866 112.246 18.3866C111.321 18.3866 110.528 18.5414 109.862 18.8531C109.197 19.1627 108.652 19.5705 108.226 20.0697C107.8 20.5712 107.486 21.1337 107.281 21.7573C107.079 22.3809 106.98 23.011 106.987 23.6476C106.994 24.2755 107.095 24.8969 107.286 25.5118C107.477 26.1266 107.784 26.676 108.208 27.1622C108.632 27.6485 109.173 28.0431 109.834 28.3418C110.495 28.6427 111.299 28.7909 112.243 28.7909C112.577 28.7909 112.918 28.7582 113.267 28.6906C113.616 28.623 113.957 28.5249 114.291 28.3941C114.624 28.2633 114.945 28.102 115.25 27.9123C115.556 27.7226 115.837 27.5002 116.094 27.2451L118.055 29.2248L118.058 29.2183Z" fill="white"/>
<path d="M121.471 15.9446V21.8947C121.712 21.5851 121.965 21.3278 122.229 21.1228C122.492 20.9179 122.765 20.7544 123.05 20.6301C123.333 20.5058 123.626 20.4186 123.924 20.3663C124.223 20.3139 124.524 20.2878 124.832 20.2878C125.6 20.2878 126.261 20.4121 126.815 20.6584C127.369 20.9048 127.825 21.2558 128.186 21.7115C128.544 22.1672 128.812 22.7145 128.985 23.3576C129.159 24.0008 129.247 24.7116 129.247 25.4965V31.1282H126.58V25.5183C126.58 25.0321 126.518 24.6113 126.398 24.2581C126.277 23.9049 126.108 23.6149 125.89 23.3903C125.673 23.1636 125.416 22.9979 125.117 22.8932C124.818 22.7886 124.491 22.7341 124.135 22.7341C123.738 22.7341 123.375 22.8126 123.048 22.9674C122.721 23.1222 122.439 23.3315 122.204 23.5975C121.969 23.8635 121.789 24.1731 121.66 24.5285C121.53 24.8838 121.469 25.2632 121.469 25.6666V31.1282H118.802V15.949H121.469L121.471 15.9446Z" fill="white"/>
<path d="M140.035 20.4341H142.583V31.1241H140.076L139.938 29.5674C139.789 29.8792 139.58 30.1495 139.31 30.3828C139.04 30.6161 138.743 30.8123 138.42 30.9693C138.097 31.1285 137.763 31.2462 137.419 31.3247C137.074 31.4032 136.753 31.4446 136.454 31.4512C135.657 31.4577 134.921 31.3421 134.242 31.1023C133.564 30.8625 132.977 30.5027 132.483 30.0231C131.989 29.5434 131.602 28.9482 131.325 28.2396C131.049 27.531 130.91 26.7068 130.91 25.7671C130.91 24.8274 131.055 24.0403 131.343 23.3383C131.631 22.6362 132.028 22.0497 132.531 21.581C133.036 21.1122 133.629 20.759 134.313 20.5213C134.996 20.2859 135.732 20.1703 136.52 20.1769C136.883 20.1769 137.236 20.2183 137.581 20.299C137.926 20.3796 138.247 20.4952 138.545 20.6434C138.844 20.7917 139.114 20.9727 139.356 21.1885C139.597 21.4044 139.793 21.6464 139.942 21.9146L140.039 20.432L140.035 20.4341ZM136.751 22.5403C136.309 22.5403 135.896 22.6122 135.508 22.7583C135.121 22.9022 134.783 23.1137 134.495 23.3928C134.207 23.6719 133.979 24.0098 133.812 24.4088C133.645 24.8078 133.561 25.2613 133.561 25.7693C133.561 26.2773 133.645 26.733 133.812 27.1342C133.979 27.5375 134.207 27.8777 134.495 28.1546C134.783 28.4336 135.121 28.6473 135.508 28.7956C135.894 28.9438 136.309 29.018 136.751 29.018C137.276 29.018 137.737 28.9242 138.132 28.7367C138.528 28.5492 138.855 28.305 139.119 28.0019C139.382 27.6989 139.578 27.3522 139.705 26.9641C139.833 26.576 139.896 26.1814 139.896 25.778C139.896 25.3747 139.833 24.9801 139.705 24.592C139.578 24.2039 139.382 23.8572 139.119 23.5541C138.855 23.2511 138.528 23.0047 138.132 22.8194C137.737 22.6319 137.278 22.5381 136.751 22.5381V22.5403Z" fill="white"/>
<path d="M148.589 17.4272V20.4557H151.563V22.7319H148.567V27.3585C148.567 27.8665 148.694 28.2459 148.951 28.4966C149.206 28.7473 149.544 28.8716 149.964 28.8716C150.17 28.8716 150.388 28.8411 150.614 28.7822C150.842 28.7234 151.056 28.6427 151.253 28.5446L152 30.799C151.616 30.9538 151.253 31.065 150.913 31.1326C150.572 31.2002 150.199 31.2394 149.792 31.2547C149.21 31.2765 148.679 31.2111 148.204 31.0584C147.728 30.9058 147.321 30.666 146.983 30.3389C146.645 30.0097 146.383 29.5998 146.199 29.1049C146.014 28.61 145.922 28.0278 145.922 27.3585V22.7319H143.917V20.4557H145.922V17.7041L148.589 17.4294V17.4272Z" fill="white"/>
</svg>
