<svg width="30" height="30" viewBox="0 0 30 30" fill="none" xmlns="http://www.w3.org/2000/svg">
<path d="M12.0966 0.95452C12.6034 -0.185012 14.1643 -0.240489 14.7761 0.78359L14.8645 0.95452L16.4269 4.47058C17.7912 7.53969 20.0599 10.1192 22.9298 11.864L23.4126 12.1474L26.1865 13.7068C26.407 13.8302 26.5932 14.0069 26.7279 14.2207C26.8627 14.4345 26.9418 14.6786 26.958 14.9308C26.9743 15.183 26.9271 15.4353 26.8209 15.6646C26.7147 15.8939 26.5528 16.093 26.35 16.2437L26.188 16.3487L23.4126 17.9081C20.4849 19.5549 18.1297 22.0565 16.6623 25.0781L16.4269 25.5849L14.8645 29.101C14.3577 30.2405 12.7968 30.296 12.1851 29.2719L12.0966 29.101L10.5342 25.5849C9.16998 22.5158 6.90122 19.9363 4.03133 18.1914L3.54852 17.9081L0.774628 16.3487C0.554109 16.2252 0.367992 16.0486 0.233238 15.8348C0.0984847 15.621 0.01938 15.3769 0.00313298 15.1247C-0.013114 14.8725 0.0340134 14.6202 0.14022 14.3909C0.246428 14.1616 0.408337 13.9625 0.611193 13.8117L0.773129 13.7068L3.54852 12.1474C6.47629 10.5006 8.8314 7.99902 10.2988 4.97737L10.5342 4.47058L12.0966 0.95452ZM13.4806 5.22477C11.6153 9.42304 8.55353 12.7727 4.54413 15.0277C8.55353 17.2828 11.6153 20.6324 13.4806 24.8307C15.3518 20.6219 18.4136 17.2798 22.417 15.0277C18.4076 12.7727 15.3458 9.42304 13.4806 5.22477ZM25.8057 0.216823C26.5504 1.90731 27.8202 3.31275 29.4267 4.22468C29.6666 4.35962 29.6666 4.70448 29.4267 4.83942C27.8197 5.75213 26.5499 7.15867 25.8057 8.85028C25.7772 8.91395 25.7309 8.96803 25.6724 9.00597C25.6138 9.04391 25.5456 9.0641 25.4758 9.0641C25.406 9.0641 25.3378 9.04391 25.2792 9.00597C25.2207 8.96803 25.1744 8.91395 25.1459 8.85028C24.4014 7.15923 23.1316 5.75324 21.5249 4.84092C21.4706 4.80999 21.4256 4.76527 21.3942 4.71128C21.3628 4.6573 21.3463 4.59598 21.3463 4.53355C21.3463 4.47112 21.3628 4.4098 21.3942 4.35582C21.4256 4.30183 21.4706 4.25711 21.5249 4.22618C23.1321 3.31308 24.402 1.90598 25.1459 0.213824C25.1744 0.150147 25.2207 0.0960743 25.2792 0.058132C25.3378 0.0201897 25.406 0 25.4758 0C25.5456 0 25.6138 0.0201897 25.6724 0.058132C25.7309 0.0960743 25.7772 0.150147 25.8057 0.213824V0.216823Z" fill="#0A0C10"/>
</svg>
